<?xml version="1.0" encoding="utf-8"?>
<!-- Generator: Adobe Illustrator 24.3.0, SVG Export Plug-In . SVG Version: 6.00 Build 0)  -->
<svg version="1.1" id="Laag_1" xmlns="http://www.w3.org/2000/svg" xmlns:xlink="http://www.w3.org/1999/xlink" x="0px" y="0px"
	 viewBox="0 0 249 51" style="enable-background:new 0 0 249 51;" xml:space="preserve">
<style type="text/css">
	.st0{fill:none;}
	.st1{fill:#53A451;}
	.st2{font-family:'Striker';}
	.st3{font-size:15.5448px;}
	.st4{fill-rule:evenodd;clip-rule:evenodd;fill:#53A451;}
</style>
<rect x="31.3" y="14.8" class="st0" width="38.8" height="18.4"/>
<text transform="matrix(1 0 0 1 31.2852 31.2856)" class="st1 st2 st3">T p</text>
<text transform="matrix(1 0 0 1 111.3984 31.4102)" class="st1 st2 st3">Recycling</text>
<text transform="matrix(1 0 0 1 64.6055 31.792)" class="st1 st2 st3">Top</text>
<rect x="47.8" y="20.5" class="st1" width="2.8" height="11.7"/>
<g id="Page-1_20_">
	<g id="Icon-Set-Filled_20_" transform="translate(-518.000000, -1039.000000)">
		<path id="checkmark_20_" class="st4" d="M570.4,1054.7c-0.3-0.3-0.7-0.3-0.9,0l-2.3,2.4l-0.6-0.6c-0.3-0.3-0.7-0.3-0.9,0
			c-0.3,0.3-0.3,0.7,0,0.9l1,1.1c0.3,0.3,0.7,0.3,0.9,0l2.8-2.8C570.6,1055.4,570.6,1055,570.4,1054.7"/>
	</g>
</g>
</svg>
