<?xml version="1.0" encoding="utf-8"?>
<!-- Generator: Adobe Illustrator 24.3.0, SVG Export Plug-In . SVG Version: 6.00 Build 0)  -->
<svg version="1.1" id="Laag_1" xmlns="http://www.w3.org/2000/svg" xmlns:xlink="http://www.w3.org/1999/xlink" x="0px" y="0px"
	 viewBox="0 0 800 800" style="enable-background:new 0 0 800 800;" xml:space="preserve">
<style type="text/css">
	.st0{fill:#FFFFFF;}
</style>
<g id="Planet_sustainability">
	<path class="st0" d="M397,178.5c-122.2,0-221.5,99.4-221.5,221.5S274.9,621.6,397,621.6s221.5-99.4,221.5-221.5
		S519.2,178.5,397,178.5z M203.6,400.1c0-33,8.4-65.4,24.5-94.2c21.6,12.9,46.4,19.7,71.6,19.5c65.8,0,119.2-43.4,119.2-97
		c0-7-0.9-14-2.8-20.8c93.7,9.5,167.1,85,173.8,179c-32.8,4.8-82.1,21.6-97,73c-17.2,59-97.2,32.5-110.3,133.4
		C281.8,585.3,203.8,501.3,203.6,400.1z"/>
	<path class="st0" d="M397.9,479.3c29.8,0,43.2-20.7,46.9-36.6c0.9-3.9-1.5-7.8-5.4-8.7c-0.5-0.1-1.1-0.2-1.7-0.2H358
		c-4,0-7.3,3.3-7.3,7.3c0,0.6,0.1,1.1,0.2,1.7C354.7,458.6,368.1,479.3,397.9,479.3z"/>
	<path class="st0" d="M335.5,369.7c-11,0-20,8.9-20,19.9c0,11,8.9,20,19.9,20c11,0,20-8.9,20-19.9c0,0,0,0,0,0
		C355.5,378.6,346.6,369.7,335.5,369.7z"/>
	<path class="st0" d="M460.3,409.6c11,0,20-8.9,20-20s-8.9-20-20-20c-11,0-20,8.9-20,20l0,0C440.4,400.6,449.3,409.6,460.3,409.6z"
		/>
	<path class="st0" d="M631.5,631.5c90.4-92.4,118.4-229.1,71.6-349.6C637.3,112.8,446.3,28.8,277.2,94.6l10.2,26.2
		c154.7-60.2,329.4,16.7,389.5,171.3c42.8,110.2,17.1,235.3-65.6,319.8l-20-19.5c-5.9-5.7-15.3-5.6-21,0.3
		c-2.8,2.8-4.3,6.6-4.2,10.6l0.8,53c0.1,8.2,6.8,14.7,15,14.6l53-0.6c8.2-0.1,14.8-6.8,14.7-15c0-3.9-1.7-7.7-4.5-10.5L631.5,631.5z
		"/>
	<path class="st0" d="M284.1,673.4C132.1,606.7,62.9,429.3,129.7,277.2c14.6-33.3,35.2-63.8,60.7-89.7l17.7,17.2
		c5.9,5.7,15.3,5.6,21-0.3c2.8-2.8,4.3-6.6,4.2-10.6l-0.8-53c-0.1-8.2-6.8-14.7-15-14.6c0,0,0,0,0,0l-53,0.6
		c-8.2,0-14.8,6.7-14.8,14.9c0,4,1.7,7.9,4.6,10.7l15.8,15.4C42.9,297.5,44.8,505.8,174.5,633.1c92.4,90.7,229.4,118.8,350,71.7
		l-10.2-26.2C440,707.7,357.1,705.8,284.1,673.4z"/>
</g>
</svg>
